<?xml version="1.0" encoding="UTF-8" standalone="no"?>
<svg
   xmlns:dc="http://purl.org/dc/elements/1.1/"
   xmlns:cc="http://creativecommons.org/ns#"
   xmlns:rdf="http://www.w3.org/1999/02/22-rdf-syntax-ns#"
   xmlns:svg="http://www.w3.org/2000/svg"
   xmlns="http://www.w3.org/2000/svg"
   xmlns:sodipodi="http://sodipodi.sourceforge.net/DTD/sodipodi-0.dtd"
   xmlns:inkscape="http://www.inkscape.org/namespaces/inkscape"
   viewBox="0 0 909 1286"
   version="1.1"
   id="svg2496"
   sodipodi:docname="1.svg"
   inkscape:version="0.92.3 (2405546, 2018-03-11)">
  <metadata
     id="metadata2500">
    <rdf:RDF>
      <cc:Work
         rdf:about="">
        <dc:format>image/svg+xml</dc:format>
        <dc:type
           rdf:resource="http://purl.org/dc/dcmitype/StillImage" />
      </cc:Work>
    </rdf:RDF>
  </metadata>
  <sodipodi:namedview
     pagecolor="#ffffff"
     bordercolor="#666666"
     borderopacity="1"
     objecttolerance="10"
     gridtolerance="10"
     guidetolerance="10"
     inkscape:pageopacity="0"
     inkscape:pageshadow="2"
     inkscape:window-width="1366"
     inkscape:window-height="707"
     id="namedview2498"
     showgrid="false"
     inkscape:zoom="0.18351477"
     inkscape:cx="454.5"
     inkscape:cy="643"
     inkscape:window-x="0"
     inkscape:window-y="0"
     inkscape:window-maximized="1"
     inkscape:current-layer="svg2496" />
  <defs
     id="defs4">
    <style
       type="text/css"
       id="style2"><![CDATA[
.g0_1{
}
.g1_1{
fill: none;
stroke: #FFFFFF;
stroke-width: 0.18333334;
stroke-linecap: round;
stroke-linejoin: round;
}
.g2_1{
fill: #7F7F7F;
}
.g3_1{
fill: none;
stroke: #000000;
stroke-width: 0.6988663;
stroke-linecap: round;
stroke-linejoin: round;
}
.g4_1{
fill: none;
stroke: #000000;
stroke-width: 1.0482968;
stroke-linecap: round;
stroke-linejoin: round;
}
.g5_1{
fill: none;
stroke: #000000;
stroke-width: 0.6988646;
stroke-linecap: round;
stroke-linejoin: round;
}
.g6_1{
fill: none;
stroke: #000000;
stroke-width: 0.6948279;
stroke-linecap: round;
stroke-linejoin: round;
}
.g7_1{
fill: #1F1A17;
}
.g8_1{
fill: #DEDEDD;
}
.g9_1{
fill: #DFDFDF;
}
.g10_1{
fill: #E1E0E0;
}
.g11_1{
fill: #E2E1E1;
}
.g12_1{
fill: #E3E3E2;
}
.g13_1{
fill: #E4E4E4;
}
.g14_1{
fill: #E6E5E5;
}
.g15_1{
fill: #E7E6E6;
}
.g16_1{
fill: #E8E8E7;
}
.g17_1{
fill: #E9E9E9;
}
.g18_1{
fill: #EBEAEA;
}
.g19_1{
fill: #ECECEB;
}
.g20_1{
fill: #EDEDED;
}
.g21_1{
fill: #EFEEEE;
}
.g22_1{
fill: #F0F0F0;
}
.g23_1{
fill: #F1F1F1;
}
.g24_1{
fill: #F2F2F2;
}
.g25_1{
fill: #F4F4F3;
}
.g26_1{
fill: #F5F5F5;
}
.g27_1{
fill: #F6F6F6;
}
.g28_1{
fill: #F8F8F7;
}
.g29_1{
fill: #F9F9F9;
}
.g30_1{
fill: #FAFAFA;
}
.g31_1{
fill: #FBFBFB;
}
.g32_1{
fill: #FDFDFD;
}
.g33_1{
fill: #FEFEFE;
}
.g34_1{
fill: #FFFFFF;
}
]]></style>
  </defs>
  <path
     d="M233,240.7h63.3v-1.5H233v1.5Z"
     class="g0_1"
     id="path116" />
  <path
     d="M258.1,258.7h-1.2v-1.1l-.4,-.4v-.5l-.4,-.4v-.4l-.3,-.3l-.4,-.4l-.4,-.4l-.3,-.3l-.8,-.4h-.3l-.4,-.4h-1.3v-1.3h1.7l.7,.4l.4,.4l.7,.3l.4,.2l.7,.4l.4,.4l.1,.7l.4,.4l.4,.7v.7l.3,.2v1.5Zm-6.2,6.6v-1.9h1.3l.4,-.1h.3l.8,-.4l.3,-.4l.4,-.3l.4,-.4l.3,-.4v-.3l.4,-.4v-.6l.4,-.3v-1.1h1.2v1.4l-.3,.6v.4l-.4,.7l-.4,.4l-.1,.7l-.4,.4l-.7,.1l-.4,.4l-.7,.4l-.4,.3l-.7,.4H253l-.4,.4h-.7Zm-6.6,-6.6h1.3v.7l.4,.4v.9l.3,.4l.4,.3l.4,.4l.3,.4l.4,.3l.4,.4l.1,.4h.4l.4,.1h1.8v1.9h-.7l-.8,-.4h-.7l-.5,-.4l-.4,-.3l-.7,-.4l-.4,-.4l-.4,-.1l-.7,-.4l-.4,-.7l-.3,-.4v-.7l-.2,-.4v-.6l-.4,-.7v-.7Zm6.6,-6.3v1.3h-1.8l-.4,.4h-.4l-.1,.4l-.4,.3l-.4,.4l-.3,.4l-.4,.3l-.4,.4l-.3,.4v.9l-.4,.7v.4h-1.3v-.8l.4,-.7V257l.2,-.7v-.7l.3,-.4l.4,-.7l.7,-.4l.4,-.4l.4,-.2l.7,-.3l.4,-.4l.5,-.4h2.2Z"
     class="g0_1"
     id="path118" />
  <path
     d="M251.2,259.8L250.4,240h1.5l.7,19.4l-1.4,.4Z"
     class="g0_1"
     id="path120" />
  <path
     fill-rule="evenodd"
     d="M251.9,257.9h-.7l-.4,.8l.4,.7h1.1l.3,-.7l-.3,-.8h-.4Z"
     class="g0_1"
     id="path122" />
  <path
     d="M251.5,258.7h-1.4v-.8h.3v-.3l.4,-.4h1.1v1.5h-.4Zm.4,0v1.6l-.4,-.2h-.7l-.4,-.3l-.3,-.4v-.7h1.8Zm0,0h1.3v.7l-.2,.4l-.4,.3h-.3l-.4,.2v-1.6Zm0,0v-1.5h.7l.4,.4v.3h.2v.8h-1.3Z"
     class="g0_1"
     id="path124" />
  <path
     d="M269.3,284.7H268v-1.5l-.3,-.3v-.6l-.4,-.3l-.4,-.4l-.3,-.4l-.4,-.3l-.4,-.4l-.3,-.4h-.8l-.1,-.3h-1.5v-1.3h1.6l.8,.3l.7,.4l.4,.2l.7,.4l.4,.3l.3,.4l.4,.7l.2,.4l.4,.7l.3,.6v1.8Zm-6.2,6.6v-1.5l.4,-.3h1.1l.1,-.4h.8l.3,-.2l.4,-.3l.4,-.4l.3,-.4l.4,-.3v-.4l.4,-.4l.3,-.7v-1.3h1.3v2l-.3,.4l-.4,.7l-.2,.4l-.4,.7l-.3,.2l-.4,.4l-.7,.7h-.4l-.7,.4l-.8,.3h-.1l-.8,.4h-.7Zm-6.6,-6.6h1.6V286l.4,.7v.4l.4,.4l.3,.3l.4,.4l.4,.4l.3,.3l.4,.2h.2l.7,.4h.8l.7,.3v1.5h-.7l-.8,-.4h-.7l-.2,-.3l-.7,-.4h-.4l-.7,-.7l-.4,-.4l-.4,-.2l-.3,-.7l-.4,-.4l-.4,-.7l-.1,-.4v-1.3l-.4,-.7Zm6.6,-6.2v1.3h-1.5l-.7,.3h-.2l-.4,.4l-.3,.4l-.4,.3l-.4,.4l-.3,.4l-.4,.3v.6l-.4,.3v1.5h-1.6l.4,-.7v-1.1l.1,-.6l.4,-.7l.4,-.4l.3,-.7l.4,-.4l.4,-.3l.7,-.4l.4,-.2l.7,-.4l.2,-.3h2.2Z"
     class="g0_1"
     id="path126" />
  <path
     fill-rule="evenodd"
     d="M263.1,284h-.7l-.4,.7l.4,.7l.7,.4l.7,-.4V284h-.7Z"
     class="g0_1"
     id="path128" />
  <path
     d="M263.1,284.7h-1.8v-.4l.3,-.3l.4,-.4v-.4h1.1v1.5Zm0,0v1.7h-.4l-.3,-.4H262v-.2h-.4v-.4l-.3,-.3v-.4h1.8Zm0,0h1.5v1.1h-.4l-.4,.2l-.3,.4h-.4v-1.7Zm0,0v-1.5h.7l.4,.4l.4,.4v.7h-1.5Z"
     class="g0_1"
     id="path130" />
  <path
     d="M280.5,257.9h-1.3v-1.2l-.3,-.4v-.7l-.4,-.4l-.4,-.4l-.3,-.3l-.4,-.4l-.4,-.4l-.3,-.2h-.4l-.6,-.3h-1.4v-1.5h1.6l.8,.4l.7,.3l.4,.4l.7,.4l.4,.3l.3,.2l.4,.8l.2,.3l.3,.8l.4,.7v1.6Zm-6.2,6.6v-1.2l.3,-.4h1.1l.6,-.4h.4l.3,-.3l.4,-.4l.4,-.4l.3,-.3l.4,-.4l.4,-.4v-.2l.3,-.7v-1.5h1.3v2.2l-.4,.2l-.3,.8l-.2,.3l-.4,.8l-.3,.3l-.4,.4l-.7,.5h-.4l-.7,.4l-.8,.4h-.2l-.7,.3h-.7ZM268,257.9h1.3v1.5l.4,.7v.2l.4,.4l.3,.4l.4,.3l.4,.4l.3,.4l.4,.3h.2l.7,.4h1.1l.4,.4v1.2h-.8l-.7,-.3h-.4l-.5,-.4l-.7,-.4h-.4l-.7,-.5l-.4,-.4l-.4,-.3l-.3,-.8l-.4,-.3l-.2,-.8l-.4,-.2v-2.2Zm6.3,-6.2v1.5h-1.5l-.7,.3h-.2l-.4,.2l-.3,.4l-.4,.4l-.4,.3l-.3,.4l-.4,.4v.7l-.4,.4v1.2H268v-1.6l.4,-.7l.2,-.8l.4,-.3l.3,-.8l.4,-.2l.4,-.3l.7,-.4l.4,-.4l.7,-.3l.5,-.4h1.9Z"
     class="g0_1"
     id="path132" />
  <path
     d="M273.5,259l-.7,-19.8h1.5L275,259h-1.5Z"
     class="g0_1"
     id="path134" />
  <path
     fill-rule="evenodd"
     d="M274.3,257.2h-.8v1.5l.8,.3l.7,-.3v-1.5h-.7Z"
     class="g0_1"
     id="path136" />
  <path
     d="M274.3,257.9h-1.9l.4,-.3v-.4l.4,-.2v-.3h1.1v1.2Zm0,0v1.9h-.4l-.4,-.4h-.3V259h-.4v-.7l-.4,-.4h1.9Zm0,0h1.6l-.2,.4v.7h-.3v.4H275l-.4,.4h-.3v-1.9Zm0,0v-1.2h1.1v.3l.3,.2v.4l.2,.3h-1.6Z"
     class="g0_1"
     id="path138" />
  <path
     d="M256.9,285.4h1.2V257.9h-1.2v27.5Z"
     class="g0_1"
     id="path140" />
  <path
     d="M268,284.7h1.3V258.3H268v26.4Z"
     class="g0_1"
     id="path142" />
  <path
     d="M245.3,297.9V258.7h1.3l.4,39.2h-1.7Z"
     class="g0_1"
     id="path144" />
  <path
     d="M274.3,314.2l-1.9,1.3H240v-2.7h32.4l1.9,1.4Zm0,0v1.3h-1.9l1.9,-1.3Zm-1.9,-17.8l1.9,1.5v16.3h-3.1V297.9l1.2,-1.5Zm0,0h1.9v1.5l-1.9,-1.5Zm-34.2,1.5l1.8,-1.5h32.4v3.2H240l-1.8,-1.7Zm0,0v-1.5H240l-1.8,1.5Zm1.8,17.6l-1.8,-1.3V297.9h3.3v16.3l-1.5,1.3Zm0,0h-1.8v-1.3l1.8,1.3Z"
     class="g0_1"
     id="path146" />
  <path
     d="M262.4,298.3h1.4V284.7h-1.4v13.6Z"
     class="g0_1"
     id="path148" />
  <path
     d="M279.2,321.2h1.3V257.9h-1.3v63.3Z"
     class="g0_1"
     id="path150" />
  <path
     d="M290.4,339.9l-1.1,.9H271.2v-1.6h18.1l1.1,.7Zm0,0v.9h-1.1l1.1,-.9Zm-1.1,-19.8l1.1,1.1v18.7h-2.2V321.2l1.1,-1.1Zm0,0h1.1v1.1l-1.1,-1.1Zm-19.2,1.1l1.1,-1.1h18.1v2H271.2l-1.1,-.9Zm0,0v-1.1h1.1l-1.1,1.1Zm1.1,19.6l-1.1,-.9V321.2h2v18.7l-.9,.9Zm0,0h-1.1v-.9l1.1,.9Z"
     class="g0_1"
     id="path152" />
  <path
     d="M233.4,239.6l2.4,-5.1h.7l-2.4,5.1h-.7Z"
     class="g0_1"
     id="path154" />
  <path
     d="M233.4,239.6l2.4,-5.1h.7l-2.4,5.1h-.7Z"
     class="g3_1"
     id="path156" />
  <path
     d="M236.5,239.6l2.4,-5.1h.7l-2,5.1h-1.1Z"
     class="g0_1"
     id="path158" />
  <path
     d="M236.5,239.6l2.4,-5.1h.7l-2,5.1h-1.1Z"
     class="g3_1"
     id="path160" />
  <path
     d="M239.6,239.6l2.4,-5.1h1.1l-2.4,5.1h-1.1Z"
     class="g0_1"
     id="path162" />
  <path
     d="M239.6,239.6l2.4,-5.1h1.1l-2.4,5.1h-1.1Z"
     class="g3_1"
     id="path164" />
  <path
     d="M243.1,239.6l2.6,-5.1h.5l-2.4,5.1h-.7Z"
     class="g0_1"
     id="path166" />
  <path
     d="M243.1,239.6l2.6,-5.1h.5l-2.4,5.1h-.7Z"
     class="g3_1"
     id="path168" />
  <path
     d="M246.2,239.6l2.6,-5.1h.5l-2.3,5.1h-.8Z"
     class="g0_1"
     id="path170" />
  <path
     d="M246.2,239.6l2.6,-5.1h.5l-2.4,5.1h-.7Z"
     class="g3_1"
     id="path172" />
  <path
     d="M249.3,239.6l2.6,-5.1h.7l-2.5,5.1h-.8Z"
     class="g0_1"
     id="path174" />
  <path
     d="M249.3,239.6l2.6,-5.1h.7l-2.5,5.1h-.8Z"
     class="g3_1"
     id="path176" />
  <path
     d="M252.6,239.6l2.4,-5.1h.8l-2.2,5.1h-1Z"
     class="g0_1"
     id="path178" />
  <path
     d="M252.6,239.6l2.4,-5.1h.7l-2.2,5.1h-.9Z"
     class="g3_1"
     id="path180" />
  <path
     d="M255.8,239.6l2.3,-5.1h1.1l-2.3,5.1h-1.1Z"
     class="g0_1"
     id="path182" />
  <path
     d="M255.7,239.6l2.4,-5.1h1.1l-2.4,5.1h-1.1Z"
     class="g3_1"
     id="path184" />
  <path
     d="M259.2,239.6l2.1,-5.1h1.1l-2.4,5.1h-.8Z"
     class="g0_1"
     id="path186" />
  <path
     d="M259.2,239.6l2,-5.1h1.2l-2.4,5.1h-.8Z"
     class="g3_1"
     id="path188" />
  <path
     d="M262.4,239.6l2.3,-5.1h.8l-2.4,5.1h-.7Z"
     class="g0_1"
     id="path190" />
  <path
     d="M262.4,239.6l2.3,-5.1h.8l-2.4,5.1h-.7Z"
     class="g3_1"
     id="path192" />
  <path
     d="M265.5,239.6l2.5,-5.1h.6l-2.4,5.1h-.7Z"
     class="g0_1"
     id="path194" />
  <path
     d="M265.5,239.6l2.5,-5.1h.6l-2.4,5.1h-.7Z"
     class="g3_1"
     id="path196" />
  <path
     d="M268.6,239.6l2.6,-5.1h.7l-2.2,5.1h-1.1Z"
     class="g0_1"
     id="path198" />
  <path
     d="M268.6,239.6l2.5,-5.1h.8l-2.2,5.1h-1.1Z"
     class="g3_1"
     id="path200" />
  <path
     d="M271.9,239.6l2.4,-5.1h1.1l-2.6,5.1h-.9Z"
     class="g0_1"
     id="path202" />
  <path
     d="M271.9,239.6l2.4,-5.1h1.1l-2.6,5.1h-.9Z"
     class="g3_1"
     id="path204" />
  <path
     d="M275.4,239.6l2,-5.1h1.1l-2.6,5.1h-.5Z"
     class="g0_1"
     id="path206" />
  <path
     d="M275.4,239.6l2,-5.1h1.1l-2.6,5.1h-.5Z"
     class="g3_1"
     id="path208" />
  <path
     d="M278.5,239.6l2.4,-5.1h.7l-2.4,5.1h-.7Z"
     class="g0_1"
     id="path210" />
  <path
     d="M278.5,239.6l2.4,-5.1h.7l-2.4,5.1h-.7Z"
     class="g3_1"
     id="path212" />
  <path
     d="M281.6,239.6l2.4,-5.1h.7l-2.4,5.1h-.7Z"
     class="g0_1"
     id="path214" />
  <path
     d="M281.6,239.6l2.4,-5.1h.7l-2.4,5.1h-.7Z"
     class="g3_1"
     id="path216" />
  <path
     d="M284.7,239.6l2.6,-5.1h.5l-2.3,5.1h-.8Z"
     class="g0_1"
     id="path218" />
  <path
     d="M284.7,239.6l2.6,-5.1h.5l-2.4,5.1h-.7Z"
     class="g3_1"
     id="path220" />
  <path
     d="M287.8,239.6l2.6,-5.1h.9l-2.4,5.1h-1.1Z"
     class="g0_1"
     id="path222" />
  <path
     d="M287.8,239.6l2.6,-5.1h.9l-2.4,5.1h-1.1Z"
     class="g3_1"
     id="path224" />
  <path
     d="M291.3,239.6l2.2,-5.1h1.1l-2.5,5.1h-.8Z"
     class="g0_1"
     id="path226" />
  <path
     d="M291.3,239.6l2.2,-5.1h1.1l-2.6,5.1h-.7Z"
     class="g3_1"
     id="path228" />
  <path
     d="M294.6,239.6l2.4,-5.1h.7l-2.5,5.1h-.6Z"
     class="g0_1"
     id="path230" />
  <path
     d="M294.6,239.6l2.4,-5.1h.7l-2.5,5.1h-.6Z"
     class="g3_1"
     id="path232" />
  <path
     d="M259.6,725.8h-1.5v-1.1l-.3,-.5v-.4l-.4,-1.1l-.2,-1.1l-.3,-.9l-.8,-1.1l-.3,-.8l-.8,-.7l-1.1,-.9l-.5,-.4l-1.1,-.7l-1.1,-.4l-1.1,-.3l-.9,-.4h-.4l-.7,-.4H247v-1.3h2.2l.3,.4l1.3,.4l1.1,.2l1.1,.3l.9,.8l1.1,.7l.8,1.1l1.1,.5l.5,1.1l.7,1.1l.4,1.1l.4,1l.3,1.4l.4,.8v1.6ZM247,738.3V737h1.8l.4,-.4l.9,-.3l1.1,-.4l1.1,-.4l1.1,-.7l.5,-.2l1.1,-.7l.8,-1.1l.3,-.8l.8,-.9l.3,-1.1l.2,-.7l.4,-1.3v-.4l.3,-.7v-1.1h1.5V728l-.4,.2l-.3,1.5l-.4,1.1l-.4,.9l-.7,1.1l-.5,1.1l-1.1,.7l-.8,.9l-1.1,.8l-.9,.7l-1.1,.4l-1.1,.3l-1.3,.4l-.3,.2H247ZM234.3,725.8h1.5v1.1l.3,.7v.4l.4,1.3l.4,.7l.3,1.1l.8,.9l.5,.8l.8,1.1l.7,.7l.7,.2l1.1,.7l.9,.4l1.1,.4l1.1,.3l.4,.4H247v1.3h-1.7l-.7,-.2l-1.5,-.4l-1.1,-.3l-.9,-.4l-1.1,-.7l-1.1,-.8l-.7,-.9l-1,-.7l-.7,-1.1l-.7,-1.1l-.4,-.9l-.4,-1.1l-.3,-1.5V728l-.4,-.7v-1.5ZM247,713.3v1.3h-1.1l-.6,.4h-.4l-1.1,.4l-1.1,.3l-.9,.4l-1.1,.7l-.7,.4l-.7,.9l-.8,.7l-.5,.8l-.8,1.1l-.3,.9l-.4,1.1l-.4,1.1v.4l-.3,.5v1.1h-1.5v-1.3l.4,-.3v-.8L235,722l.4,-1l.4,-1.1l.7,-1.1l.7,-1.1l1,-.5l.7,-1.1l1.1,-.7l1.1,-.8l.9,-.3l1.1,-.2l1.5,-.4l.7,-.4H247Z"
     class="g0_1"
     id="path234" />
  <path
     d="M305.8,725.4h-1.5v-1.2l-.3,-.4v-.7l-.4,-1.1l-.4,-1l-.3,-1.1l-.6,-.7l-.3,-1.1l-1.1,-.5l-.8,-.8l-.7,-.7l-.9,-.7l-1.1,-.4l-1.1,-.4l-1.1,-.3h-2v-1.7l.7,.4h1.6l1.5,.3l1.1,.4l.9,.6l1.1,.7l1.1,.7l.8,.8l.9,1.1l.7,.5l.7,1.1l.4,1.1l.4,1.3l.3,1.1l.4,.7v2Zm-12.6,12.7v-1.8h2l1.1,-.4l1.1,-.4l1.1,-.3l.9,-.6l.7,-.7l.8,-.8l1.1,-.7l.3,-.9l.6,-.7l.3,-1.1l.4,-1.1l.4,-1v-.7l.3,-.4v-1.1h1.5v1.9l-.4,.7l-.3,.9l-.4,1.5l-.4,1.1l-.7,.9l-.7,.7l-.9,1.1l-.8,.6l-1.1,.7l-1.1,.8l-.9,.7l-1.1,.4l-1.5,.3h-1.6l-.7,.4ZM280.5,725.4H282v1.1l.3,.4v.7l.4,1l.4,1.1l.3,1.1l.6,.7l.4,.9l1.1,.7l.7,.8l.7,.7l.9,.6l1.1,.3l1.1,.4l1.1,.4h2.1v1.8l-.8,-.4h-1.6l-1.5,-.3l-1.1,-.4l-.9,-.7l-1.1,-.8l-1.1,-.7l-.7,-.6l-1,-1.1l-.7,-.7l-.7,-.9l-.4,-1.1l-.4,-1.5l-.3,-.9l-.4,-.7v-1.9Zm12.7,-12.8v1.7h-2.1l-1.1,.3l-1.1,.4l-1.1,.4l-.9,.7l-.7,.7l-.7,.8l-1.1,.5l-.4,1.1l-.6,.7l-.3,1.1l-.4,1l-.4,1.1v.7l-.3,.4v1.2h-1.5v-2l.4,-.7l.3,-1.1l.4,-1.3l.4,-1.1l.7,-1.1l.7,-.5l1,-1.1l.7,-.8l1.1,-.7l1.1,-.7l.9,-.6l1.1,-.4l1.5,-.3h1.6l.8,-.4Z"
     class="g0_1"
     id="path236" />
  <path
     d="M283.8,774.6h-1.5v-.8l-.3,-.7v-.9l-.4,-1.1l-.4,-1.1l-.3,-.7l-.8,-1l-.5,-.7l-.7,-1.1l-.8,-.5l-1.1,-.8l-.7,-.3l-.9,-.8l-1.1,-.3h-1.1l-.8,-.4h-1.6v-1.3h2.7l1.1,.4l1.5,.5l.9,.4l1.1,.7l.8,.8l1.1,.7l.5,.9l1.1,1.1l.4,1.1l.7,.9l.4,1.1l.3,1.1v.8l.4,.5v1.5Zm-13,12.4v-1.2h.7l.8,-.4h.9l1.1,-.4l1.1,-.3l.9,-.4l.7,-.7l1.1,-.6l.8,-.7l.7,-.8l.5,-.7l.8,-1.1l.3,-.9l.4,-.4v-.7l.4,-.4v-1.6l.3,-.8v-.3h1.5v1.1l-.4,.5v1.5l-.3,.4v.7l-.4,.7l-.7,.9l-.4,1.1l-1.1,1.1l-.5,.6l-1.1,1.1l-.8,.7l-1.1,.4l-.9,.7l-1.5,.4l-1.1,.2h-.7l-.5,.3h-1.5ZM258.1,774.6h1.5v1.1l.4,.5v1.1l.3,.4v.7l.4,.4l.4,.9l.5,1.1l.8,.7l.7,.8l.7,.7l.8,.6l.9,.7l1.1,.4l.3,.3h.8l.3,.4h1.7l.7,.4h.4V787h-1.1l-.7,-.3h-1.3l-.4,-.2h-.7l-.8,-.4l-1.1,-.7l-.9,-.4l-1.1,-.7l-.7,-1.1l-.9,-.6l-.8,-1.1l-.7,-1.1l-.4,-.9l-.3,-.7v-.7l-.4,-.4V777l-.4,-.8v-1.6Zm12.7,-12.5v1.3H269l-.4,.4h-.9l-1.1,.3l-1.1,.8l-.9,.3l-.8,.8l-.7,.5l-.7,1.1l-.8,.7l-.5,1l-.4,.7l-.4,.7v.4l-.3,.7v.9l-.4,.4v1.5h-1.5v-2l.4,-.4v-.7l.4,-.8V770l.3,-.4l.4,-.9l.7,-1.1l.8,-1.1l.9,-.9l.7,-.7l1.1,-.8l.9,-.7l1.1,-.4l1.5,-.5l1.1,-.4h2.4Z"
     class="g0_1"
     id="path238" />
  <path
     d="M258.1,776h1.5V723.8h-1.5V776Z"
     class="g0_1"
     id="path240" />
  <path
     d="M282.3,728l1.1,44.7H282L280.9,728h1.4Z"
     class="g0_1"
     id="path242" />
  <path
     d="M292.4,725.4h1.5V689h-1.5v36.4Z"
     class="g0_1"
     id="path244" />
  <path
     d="M245.9,726.9h1.4V690.6h-1.4v36.3Z"
     class="g0_1"
     id="path246" />
  <path
     d="M279.9,689.3h30.7"
     class="g4_1"
     id="path248" />
  <path
     d="M280.1,689.3l3.3,-7.3h1.3l-3.5,7.3h-1.1Z"
     class="g0_1"
     id="path250" />
  <path
     d="M280.1,689.3l3.3,-7.3h1.3l-3.5,7.3h-1.1Z"
     class="g5_1"
     id="path252" />
  <path
     d="M284.7,689.3l3.5,-7.3h1.1l-3.5,7.3h-1.1Z"
     class="g0_1"
     id="path254" />
  <path
     d="M284.7,689.3l3.5,-7.3h1.1l-3.5,7.3h-1.1Z"
     class="g5_1"
     id="path256" />
  <path
     d="M289.3,689.3l3.5,-7.3h1.1l-3.5,7.3h-1.1Z"
     class="g0_1"
     id="path258" />
  <path
     d="M289.3,689.3l3.5,-7.3h1.1l-3.5,7.3h-1.1Z"
     class="g5_1"
     id="path260" />
  <path
     d="M293.9,689.3l3.5,-7.3h1.1l-3.5,7.3h-1.1Z"
     class="g0_1"
     id="path262" />
  <path
     d="M293.9,689.3l3.5,-7.3h1.1l-3.5,7.3h-1.1Z"
     class="g5_1"
     id="path264" />
  <path
     d="M298.5,689.3L302,682h.9l-3.5,7.3h-.9Z"
     class="g0_1"
     id="path266" />
  <path
     d="M298.5,689.3l3.4,-7.3h1l-3.5,7.3h-.9Z"
     class="g5_1"
     id="path268" />
  <path
     d="M302.9,689.3l3.6,-7.3h1l-3.5,7.3h-1.1Z"
     class="g0_1"
     id="path270" />
  <path
     d="M302.9,689.3l3.6,-7.3h.9l-3.4,7.3h-1.1Z"
     class="g5_1"
     id="path272" />
  <path
     d="M307.5,689.3l3.4,-7.3H312l-3.1,7.3h-1.4Z"
     class="g0_1"
     id="path274" />
  <path
     d="M307.4,689.3l3.5,-7.3H312l-3.1,7.3h-1.5Z"
     class="g5_1"
     id="path276" />
  <path
     d="M231.9,690.6h30.8"
     class="g4_1"
     id="path278" />
  <path
     d="M232.3,690.6l3.1,-7.3h1.5l-3.5,7.3h-1.1Z"
     class="g0_1"
     id="path280" />
  <path
     d="M232.3,690.6l3.1,-7.3h1.5l-3.5,7.3h-1.1Z"
     class="g5_1"
     id="path282" />
  <path
     d="M236.9,690.6l3.5,-7.3h1.1l-3.5,7.3h-1.1Z"
     class="g0_1"
     id="path284" />
  <path
     d="M236.9,690.6l3.4,-7.3h1.1l-3.4,7.3h-1.1Z"
     class="g5_1"
     id="path286" />
  <path
     d="M241.5,690.6l3.4,-7.3h1l-3.5,7.3h-.9Z"
     class="g0_1"
     id="path288" />
  <path
     d="M241.4,690.6l3.5,-7.3h.9l-3.4,7.3h-1Z"
     class="g5_1"
     id="path290" />
  <path
     d="M245.9,690.6l3.6,-7.3h.9l-3.4,7.3h-1.1Z"
     class="g0_1"
     id="path292" />
  <path
     d="M245.8,690.6l3.7,-7.3h.9l-3.5,7.3h-1.1Z"
     class="g5_1"
     id="path294" />
  <path
     d="M250.4,690.6l3.5,-7.3H255l-3.5,7.3h-1.1Z"
     class="g0_1"
     id="path296" />
  <path
     d="M250.4,690.6l3.5,-7.3H255l-3.5,7.3h-1.1Z"
     class="g5_1"
     id="path298" />
  <path
     d="M255,690.6l3.5,-7.3h1.1l-3.5,7.3H255Z"
     class="g0_1"
     id="path300" />
  <path
     d="M255,690.6l3.5,-7.3h1.1l-3.5,7.3H255Z"
     class="g5_1"
     id="path302" />
  <path
     d="M259.6,690.6l3.5,-7.3h1.1l-3.1,7.3h-1.5Z"
     class="g0_1"
     id="path304" />
  <path
     d="M259.6,690.6l3.5,-7.3h1.1l-3.1,7.3h-1.5Z"
     class="g5_1"
     id="path306" />
  <path
     d="M304,765.2V723.8h1.8v41.4H304Zm1.1,0l2,-3.1v3.1l-2,3.5l-2.4,-3.5v-3.1l2.4,3.1Z"
     class="g0_1"
     id="path308" />
  <path
     d="M198,713h48.6v1.6H198V713Zm.4,1.1l3.1,2H198l-3.5,-2l3.5,-2.6h3.5l-3.1,2.6Z"
     class="g0_1"
     id="path310" />
  <path
     d="M270.1,799.3l.3,-25.5h1.5l-.4,25.5h-1.4Z"
     class="g0_1"
     id="path312" />
  <path
     d="M279.2,809l-.7,.8H262.4v-1.5h16.1l.7,.7Zm0,0v.8h-.7l.7,-.8Zm-.7,-10.4l.7,.7V809h-1.4v-9.7l.7,-.7Zm0,0h.7v.7l-.7,-.7Zm-16.9,.7l.8,-.7h16.1v1.6H262.4l-.8,-.9Zm0,0v-.7h.8l-.8,.7Zm.8,10.5l-.8,-.8v-9.7h1.5V809l-.7,.8Zm0,0h-.8V809l.8,.8Z"
     class="g0_1"
     id="path314" />
  <path
     fill-rule="evenodd"
     d="M246.2,724.7l.8,.4l.3,.7l-.3,.7l-.8,.4l-.5,-.4l-.4,-.7l.4,-.7l.5,-.4Z"
     class="g0_1"
     id="path316" />
  <path
     d="M248.1,725.8h-1.5v-.4h-.4v-1.2h.4l.4,.3h.3l.4,.2l.4,.4v.7Zm-1.9,1.8v-1.4h.4v-.4h1.5v.7l-.4,.4l-.4,.4l-.3,.3h-.8Zm-1.6,-1.8h1.6v1.8h-.5l-.4,-.3v-.4h-.4v-.4l-.3,-.3v-.4Zm1.6,-1.6v1.6h-1.6v-.4l.3,-.3v-.4h.4v-.2h.4l.2,-.3h.3Z"
     class="g0_1"
     id="path318" />
  <path
     fill-rule="evenodd"
     d="M270.8,772.6l.7,.1l.4,.8l-.4,.7l-.7,.4l-.7,-.4l-.4,-.7l.4,-.8l.7,-.1Z"
     class="g0_1"
     id="path320" />
  <path
     d="M272.4,773.5h-1.6v-1.7h.7l.4,.4v.4h.4v.1l.1,.4v.4Zm-1.6,1.8v-1.8h1.6v.3l-.1,.4v.4h-.4v.3h-.4l-.3,.4h-.4ZM269,773.5h1.4v.3h.4v1.5h-.4l-.3,-.4h-.4l-.4,-.3l-.3,-.4v-.7Zm1.8,-1.7v1.3h-.4v.4H269v-.8l.3,-.1l.4,-.4l.4,-.4h.7Z"
     class="g0_1"
     id="path322" />
  <path
     fill-rule="evenodd"
     d="M293.2,724.2l.7,.3l.4,.6l-.4,.7l-.7,.4l-.8,-.4l-.3,-.7l.3,-.6l.8,-.3Z"
     class="g0_1"
     id="path324" />
  <path
     d="M295,725.1h-1.8v-1.7h.3l.4,.4l.4,.4h.3v.3l.4,.2v.4Zm-1.8,1.8v-1.8H295v.3l-.4,.4v.4l-.3,.3h-.4v.4h-.7Zm-1.7,-1.8h1.3v.3h.4v1.5h-.8l-.3,-.4h-.4v-.3l-.2,-.4v-.7Zm1.7,-1.7v1.3l-.4,.4h-1.3v-.6l.2,-.3l.4,-.4h.3l.4,-.4h.4Z"
     class="g0_1"
     id="path326" />
  <path
     d="M614.2,222H722.3v-1.5H614.2V222Z"
     class="g0_1"
     id="path328" />
  <path
     d="M652.1,248.6h-1.4V248l-.4,-.7v-1.5l-.4,-.3v-.8l-.3,-.5v-.7l-.4,-.4l-.4,-.7l-.2,-.8l-.3,-.3l-.4,-.8l-.4,-.3l-.3,-.2l-.8,-.8l-.3,-.3l-.4,-.4l-.5,-.4l-.4,-.3l-.7,-.4l-.4,-.4l-.7,-.3l-.8,-.4l-.2,-.2h-.7l-.7,-.3h-1.5l-.5,-.4h-1.1v-1.5h2l.7,.4h.7l.8,.4h.5l.8,.3l.7,.4l.7,.4l.4,.3l.5,.2l.8,.4l.3,.7l.8,.4l.3,.3l.8,.8l.3,.3l.2,.8l.8,.2l.3,.7l.4,.7l.4,.8v.7l.3,.7l.4,.6v.7l.4,.7v.8l.3,.7v1.3Zm-14.6,14.8V262h1.6l.7,-.4h.8l.7,-.4h.7l.2,-.3l.8,-.4l.7,-.4h.4l.7,-.1l.4,-.4l.5,-.7l.4,-.4l.3,-.4l.8,-.3l.3,-.8l.4,-.3l.4,-.6l.3,-.4l.2,-.7l.4,-.4l.4,-.7v-.7l.3,-.8v-.1l.4,-.8v-1.4l.4,-.8v-.7h1.4v1.5l-.3,.7v1.1l-.4,.5v.8l-.4,.7l-.3,.4v.7l-.4,.7l-.4,.6l-.3,.7l-.8,.4l-.2,.7l-.3,.4l-.8,.7l-.3,.4l-.8,.5l-.3,.4l-.8,.4l-.5,.3l-.4,.4l-.7,.4l-.7,.3l-.8,.4h-.5l-.8,.4h-.7l-.7,.3h-2ZM622.4,248.6h1.9v2.9l.3,.8v.1l.4,.8l.2,.7v.7l.3,.4l.4,.7l.4,.4l.3,.6l.4,.3l.4,.8l.7,.3l.4,.4l.2,.4l.7,.7l.4,.4l.7,.1h.4l.7,.4l.5,.4l.8,.3h.3l.8,.4h.7l.6,.4h2.2v1.4h-2.4l-.8,-.3h-.7l-.7,-.4h-.8l-.5,-.4l-.7,-.3l-.8,-.4l-.3,-.4l-.8,-.3l-.5,-.4l-.4,-.4l-.7,-.5l-.4,-.4l-.7,-.7l-.4,-.4l-.4,-.7l-.3,-.4l-.2,-.7l-.4,-.6l-.3,-.7l-.4,-.7l-.4,-.4l-.3,-.7v-.8l-.4,-.5v-1.8l-.4,-.8v-.7Zm15.1,-14.7v1.5H636l-.7,.4H634l-.8,.3h-.3l-.8,.2l-.5,.4l-.7,.3l-.4,.4l-.7,.4l-.4,.3l-.7,.4l-.2,.4l-.4,.3l-.7,.8l-.4,.2l-.4,.3l-.3,.8l-.4,.3l-.4,.8l-.3,.7v.4l-.2,.7l-.4,.5v.8l-.3,.3v2.8h-1.9V248l.4,-.7v-1.5l.4,-.7v-.7l.3,-.6l.4,-.7l.4,-.7l.3,-.8l.4,-.7l.2,-.7l.3,-.2l.4,-.8l.4,-.3l.7,-.8l.4,-.3l.7,-.4l.4,-.7l.5,-.4l.8,-.2l.3,-.3l.8,-.4l.7,-.4l.5,-.3h.8l.7,-.4h.7l.8,-.4h2.4Z"
     class="g0_1"
     id="path330" />
  <path
     d="M708.4,249.7h-1.5l-.3,-.7v-2.1l-.4,-.7v-.7l-.4,-.4v-.7l-.1,-.6l-.4,-.3l-.4,-.8l-.3,-.7l-.4,-.4l-.4,-.7l-.3,-.4l-.8,-.3l-.3,-.2l-.2,-.8l-.8,-.3l-.3,-.4l-.8,-.4l-.3,-.3l-.8,-.4h-.5l-.4,-.4l-.7,-.3h-.7l-.8,-.4h-2.4V235h2.8l.7,.4h.8l.7,.4l.5,.3l.8,.2l.7,.4l.4,.3l.7,.4l.6,.4l.3,.3l.8,.4l.3,.7l.8,.4l.3,.6l.4,.3l.4,.8l.5,.7l.4,.7l.3,.4v.7l.4,.6l.4,.7v.7l.3,.8V248l.4,.6v1.1Zm-14.7,14.7v-1.3h.4l.7,-.4h1.3l.8,-.4h.7l.7,-.3h.4l.5,-.4l.8,-.4l.3,-.3l.8,-.4l.3,-.4l.8,-.1l.2,-.4l.3,-.4l.8,-.7l.3,-.4l.4,-.7l.4,-.4l.3,-.7l.4,-.2l.4,-.7l.1,-.8v-.3l.4,-.8v-.7l.4,-.5v-1.9l.3,-.7h1.5v.7l-.4,.8v1.2l-.3,.8v.7l-.4,.7l-.4,.8v.7l-.3,.6l-.4,.7l-.5,.4l-.4,.7l-.4,.4l-.3,.7l-.8,.4l-.3,.5l-.8,.4l-.3,.3l-.6,.8l-.7,.3l-.4,.4l-.7,.4h-.8l-.5,.3l-.7,.4h-.8l-.7,.4h-.7l-.6,.2h-1.5ZM678.9,249.7h1.6v2.6l.4,.5v.7l.4,.8l.3,.3v.8l.4,.7l.2,.2l.4,.7l.3,.4l.4,.7l.4,.4l.7,.7l.4,.4l.3,.4l.6,.1l.3,.4l.8,.4l.3,.3l.8,.4l.7,.4h.4l.5,.3h.8l.7,.4h1.3l.7,.4h.7v1.3h-1.6l-.7,-.2h-.8l-.7,-.4h-.7l-.6,-.4l-.7,-.3h-.8l-.7,-.4l-.4,-.4l-.5,-.3l-.7,-.8l-.4,-.3l-.7,-.4l-.4,-.5l-.7,-.4l-.4,-.7l-.2,-.4l-.4,-.7l-.7,-.4l-.4,-.7v-.6l-.3,-.7l-.4,-.8l-.4,-.7v-.7l-.3,-.8v-1.2l-.2,-.8v-.7ZM693.7,235v1.3H691l-.7,.4h-.8l-.5,.3l-.4,.4h-.7l-.8,.4l-.3,.3l-.8,.4l-.3,.4l-.6,.3l-.3,.8l-.4,.2l-.7,.3l-.4,.4l-.4,.7l-.3,.4l-.4,.7l-.2,.8l-.4,.3v.6l-.3,.7l-.4,.4v.7l-.4,.7v2.8h-1.6v-1.1l.2,-.6v-1.4l.3,-.8v-.7l.4,-.7l.4,-.6l.3,-.7v-.4l.4,-.7l.7,-.7l.4,-.8l.2,-.3l.4,-.6l.7,-.4l.4,-.7l.7,-.4l.4,-.3l.7,-.4l.5,-.4l.4,-.3l.7,-.4l.8,-.2l.7,-.3l.6,-.4h.7l.7,-.4h3.1Z"
     class="g0_1"
     id="path332" />
  <path
     d="M650.7,299.9h1.4V248h-1.4v51.9Z"
     class="g0_1"
     id="path334" />
  <path
     d="M680.2,299.9h-1.7v-2.5l-.3,-.8v-.5l-.4,-.8l-.4,-.7v-.4l-.3,-.7l-.4,-.4l-.4,-.7l-.3,-.2l-.4,-.7l-.2,-.4l-.7,-.7l-.4,-.4l-.4,-.3l-.7,-.4l-.4,-.4l-.7,-.3l-.2,-.4l-.7,-.2l-.7,-.4h-.8l-.3,-.3l-.6,-.4h-1.5l-.7,-.4h-1.3v-1.4H667l.7,.3H669l.7,.4l.8,.4h.7l.7,.3l.6,.4l.3,.4l.8,.3l.7,.4l.4,.6l.7,.3l.2,.4l.7,.7l.4,.4l.4,.7l.3,.8l.4,.3l.4,.6l.3,.7l.4,.7l.2,.8l.3,.7v.6l.4,.7v1.5l.4,.7v.7Zm-14.9,14.7v-1.5h2l.8,-.3h1.3l.3,-.4l.8,-.2h.7l.7,-.4l.2,-.3l.7,-.4l.4,-.4l.7,-.3l.4,-.8l.4,-.3l.7,-.4l.2,-.5l.4,-.4l.3,-.7l.4,-.4l.4,-.7l.3,-.4v-.7l.4,-.8l.4,-.2v-.7l.3,-.7v-2.8h1.7v.6l-.4,1.1V303l-.4,.8v.5l-.3,.8l-.2,.7l-.4,.7l-.3,.4l-.4,.7l-.4,.8l-.3,.1l-.4,.8l-.4,.7l-.7,.4l-.2,.3l-.7,.8l-.4,.3l-.7,.4l-.8,.2l-.3,.4l-.6,.3l-.7,.4l-.7,.4l-.8,.3H669l-.6,.4h-3.1ZM650.7,299.9h1.4v.6l.2,.7v1.5l.4,.7v.7l.3,.2v.8l.4,.7l.4,.4l.3,.7l.4,.4l.4,.7l.3,.4l.2,.5l.8,.4l.3,.3l.4,.8l.7,.3l.4,.4l.7,.4l.2,.3l.7,.4h.8l.3,.2l.8,.4h1.3l.7,.3h1.8v1.5h-2.9l-.6,-.4h-.7l-.7,-.3l-.8,-.4l-.7,-.4l-.5,-.3l-.4,-.4l-.7,-.2l-.8,-.4l-.3,-.3l-.8,-.8l-.2,-.3l-.7,-.4l-.4,-.7l-.3,-.8l-.8,-.1l-.3,-.8l-.4,-.7l-.2,-.4v-.7l-.3,-.7l-.4,-.8v-.5L651,303v-.7l-.3,-.7v-1.7Zm14.6,-14.8v1.4h-1.1l-.7,.4H662l-.5,.4l-.8,.3h-.3l-.8,.4l-.7,.2l-.2,.4l-.7,.3l-.4,.4l-.7,.4l-.4,.3l-.3,.4l-.8,.7l-.2,.4l-.3,.7l-.4,.2l-.4,.7l-.3,.4l-.4,.7l-.4,.4v.7l-.3,.8v.5l-.4,.8v1.1l-.2,.7v.7h-1.4v-1.4l.3,-.8V297l.4,-.7v-.6l.4,-.7l.3,-.8v-.7l.2,-.7l.4,-.6l.3,-.3l.8,-.8l.3,-.7l.4,-.4l.7,-.7l.2,-.4l.8,-.3l.3,-.6l.8,-.4l.7,-.3l.4,-.4l.5,-.4l.7,-.3h.8l.7,-.4l.7,-.4h1.3l.8,-.3h1.4Z"
     class="g0_1"
     id="path336" />
  <path
     d="M678.9,299.9h1.6V248h-1.6v51.9Z"
     class="g0_1"
     id="path338" />
  <path
     d="M636.7,248.6h1.5V220.9h-1.5v27.7Z"
     class="g0_1"
     id="path340" />
  <path
     d="M694.5,222l-.4,26.6h-1.5L693,222h1.5Z"
     class="g0_1"
     id="path342" />
  <path
     d="M614.5,220.9l2.8,-5.5h1.1l-2.9,5.5h-1Z"
     class="g0_1"
     id="path344" />
  <path
     d="M614.5,220.9l2.8,-5.5h1.1l-3,5.5h-.9Z"
     class="g6_1"
     id="path346" />
  <path
     d="M618.4,220.9l3.1,-5.5h.9l-3.1,5.5h-.9Z"
     class="g0_1"
     id="path348" />
  <path
     d="M618.4,220.9l3.1,-5.5h.9l-3.1,5.5h-.9Z"
     class="g6_1"
     id="path350" />
  <path
     d="M622.4,220.9l2.8,-5.5h1.1l-2.8,5.5h-1.1Z"
     class="g0_1"
     id="path352" />
  <path
     d="M622.4,220.9l2.8,-5.5h1.1l-2.8,5.5h-1.1Z"
     class="g6_1"
     id="path354" />
  <path
     d="M626.3,220.9l3.1,-5.5h1.1l-3.1,5.5h-1.1Z"
     class="g0_1"
     id="path356" />
  <path
     d="M626.3,220.9l3.1,-5.5h1.1l-3.1,5.5h-1.1Z"
     class="g6_1"
     id="path358" />
  <path
     d="M630.5,220.9l2.7,-5.5h1.1l-2.7,5.5h-1.1Z"
     class="g0_1"
     id="path360" />
  <path
     d="M630.5,220.9l2.7,-5.5h1.1l-2.7,5.5h-1.1Z"
     class="g6_1"
     id="path362" />
  <path
     d="M634.3,220.9l3.2,-5.5h1.1l-3.3,5.5h-1Z"
     class="g0_1"
     id="path364" />
  <path
     d="M634.3,220.9l3.1,-5.5h1.1l-3.3,5.5h-.9Z"
     class="g6_1"
     id="path366" />
  <path
     d="M638.6,220.9l3.1,-5.5h.9l-3.1,5.5h-.9Z"
     class="g0_1"
     id="path368" />
  <path
     d="M638.5,220.9l3.2,-5.5h.9l-3.1,5.5h-1Z"
     class="g6_1"
     id="path370" />
  <path
     d="M642.6,220.9l2.7,-5.5h1.1l-3.1,5.5h-.7Z"
     class="g0_1"
     id="path372" />
  <path
     d="M642.6,220.9l2.7,-5.5h1.1l-3.1,5.5h-.7Z"
     class="g6_1"
     id="path374" />
  <path
     d="M646.4,220.9l3.2,-5.5h1.1l-3.2,5.5h-1.1Z"
     class="g0_1"
     id="path376" />
  <path
     d="M646.4,220.9l3.1,-5.5h1.1l-3.1,5.5h-1.1Z"
     class="g6_1"
     id="path378" />
  <path
     d="M650.7,220.9l2.7,-5.5h1.1l-2.7,5.5h-1.1Z"
     class="g0_1"
     id="path380" />
  <path
     d="M650.6,220.9l2.8,-5.5h1.1l-2.8,5.5h-1.1Z"
     class="g6_1"
     id="path382" />
  <path
     d="M654.5,220.9l3.1,-5.5h1.1l-3.3,5.5h-.9Z"
     class="g0_1"
     id="path384" />
  <path
     d="M654.5,220.9l3.1,-5.5h1.1l-3.3,5.5h-.9Z"
     class="g6_1"
     id="path386" />
  <path
     d="M658.7,220.9l2.8,-5.5h.9l-2.8,5.5h-.9Z"
     class="g0_1"
     id="path388" />
  <path
     d="M658.7,220.9l2.8,-5.5h.9l-2.8,5.5h-.9Z"
     class="g6_1"
     id="path390" />
  <path
     d="M662.4,220.9l3.1,-5.5h1.1l-3.1,5.5h-1.1Z"
     class="g0_1"
     id="path392" />
  <path
     d="M662.4,220.9l3.1,-5.5h1.1l-3.1,5.5h-1.1Z"
     class="g6_1"
     id="path394" />
  <path
     d="M666.6,220.9l3.1,-5.5h.8l-2.8,5.5h-1.1Z"
     class="g0_1"
     id="path396" />
  <path
     d="M666.6,220.9l3.1,-5.5h.7l-2.7,5.5h-1.1Z"
     class="g6_1"
     id="path398" />
  <path
     d="M670.5,220.9l3.1,-5.5h1.1l-3.1,5.5h-1.1Z"
     class="g0_1"
     id="path400" />
  <path
     d="M670.4,220.9l3.2,-5.5h1.1l-3.2,5.5h-1.1Z"
     class="g6_1"
     id="path402" />
  <path
     d="M674.7,220.9l3.1,-5.5h1.1l-3.3,5.5h-.9Z"
     class="g0_1"
     id="path404" />
  <path
     d="M674.7,220.9l3.1,-5.5h1.1l-3.3,5.5h-.9Z"
     class="g6_1"
     id="path406" />
  <path
     d="M678.9,220.9l2.7,-5.5h1l-2.8,5.5h-.9Z"
     class="g0_1"
     id="path408" />
  <path
     d="M678.9,220.9l2.7,-5.5h.9l-2.7,5.5h-.9Z"
     class="g6_1"
     id="path410" />
  <path
     d="M682.6,220.9l3.1,-5.5h1.1l-3.1,5.5h-1.1Z"
     class="g0_1"
     id="path412" />
  <path
     d="M682.5,220.9l3.2,-5.5h1.1l-3.2,5.5h-1.1Z"
     class="g6_1"
     id="path414" />
  <path
     d="M686.8,220.9l2.7,-5.5h1.1l-2.7,5.5h-1.1Z"
     class="g0_1"
     id="path416" />
  <path
     d="M686.8,220.9l2.7,-5.5h1.1l-2.7,5.5h-1.1Z"
     class="g6_1"
     id="path418" />
  <path
     d="M690.6,220.9l3.1,-5.5h1.1l-3.1,5.5h-1.1Z"
     class="g0_1"
     id="path420" />
  <path
     d="M690.6,220.9l3.1,-5.5h1.1l-3.1,5.5h-1.1Z"
     class="g6_1"
     id="path422" />
  <path
     d="M694.8,220.9l2.8,-5.5h1.1l-2.9,5.5h-1Z"
     class="g0_1"
     id="path424" />
  <path
     d="M694.8,220.9l2.8,-5.5h1.1l-3,5.5h-.9Z"
     class="g6_1"
     id="path426" />
  <path
     d="M698.7,220.9l3.1,-5.5h.9l-3.1,5.5h-.9Z"
     class="g0_1"
     id="path428" />
  <path
     d="M698.7,220.9l3.1,-5.5h.9l-3.1,5.5h-.9Z"
     class="g6_1"
     id="path430" />
  <path
     d="M702.7,220.9l3.1,-5.5h1.1l-3.1,5.5h-1.1Z"
     class="g0_1"
     id="path432" />
  <path
     d="M702.7,220.9l3.1,-5.5h1.1l-3.1,5.5h-1.1Z"
     class="g6_1"
     id="path434" />
  <path
     d="M706.9,220.9l2.8,-5.5h1.1l-3.1,5.5h-.8Z"
     class="g0_1"
     id="path436" />
  <path
     d="M706.9,220.9l2.8,-5.5h1.1l-3.1,5.5h-.8Z"
     class="g6_1"
     id="path438" />
  <path
     d="M710.8,220.9l3.1,-5.5H715l-3.1,5.5h-1.1Z"
     class="g0_1"
     id="path440" />
  <path
     d="M710.8,220.9l3.1,-5.5H715l-3.1,5.5h-1.1Z"
     class="g6_1"
     id="path442" />
  <path
     d="M715,220.9l2.8,-5.5h1.1l-3,5.5H715Z"
     class="g0_1"
     id="path444" />
  <path
     d="M715,220.9l2.7,-5.5h1.1l-2.9,5.5H715Z"
     class="g6_1"
     id="path446" />
  <path
     d="M718.9,220.9l3.1,-5.5h.9l-3.1,5.5h-.9Z"
     class="g0_1"
     id="path448" />
  <path
     d="M718.8,220.9l3.2,-5.5h.9l-3.1,5.5h-1Z"
     class="g6_1"
     id="path450" />
  <path
     d="M622.4,277.4h1.9V247.7h-1.9v29.7Z"
     class="g0_1"
     id="path452" />
  <path
     d="M706.6,278.5H708V248.2h-1.4v30.3Z"
     class="g0_1"
     id="path454" />
  <path
     d="M664.2,330.4h1.7V299.9h-1.7v30.5Z"
     class="g0_1"
     id="path456" />
  <path
     d="M660.2,663.1h-1.8v-1.5l-.4,-.3v-.4l-.2,-.2v-.3l-.4,-.4l-.3,-.4l-.4,-.3h-.4l-.3,-.4h-.8l-.3,-.4h-.6v-1.3h.9l.8,.2h.3l.8,.4l.3,.4l.4,.3l.6,.4l.3,.4l.4,.3l.4,.8v.3l.3,.6v.7l.4,.4v.7Zm-5.9,5.9v-1.3h.6l.3,-.4h.8l.3,-.3h.4l.4,-.4l.3,-.4l.4,-.3v-.4l.2,-.4v-.3l.4,-.4v-1.3h1.8v.7l-.4,.4v.6l-.3,.7v.4l-.4,.7l-.4,.4l-.3,.3l-.6,.4l-.4,.2l-.3,.3l-.8,.4H656l-.8,.4h-.9Zm-6,-5.9h1.4v1.3l.4,.4v.3l.4,.4l.2,.4v.3l.3,.4l.4,.4h.4l.7,.3h.4l.3,.4h1.1V669h-1.4l-.4,-.4h-.7l-.8,-.4l-.3,-.3l-.2,-.2l-.4,-.4l-.7,-.3l-.4,-.4v-.7l-.4,-.4l-.3,-.7v-1.7Zm6,-5.9v1.3h-1.1l-.3,.4h-.4l-.7,.4h-.4l-.4,.3l-.3,.4v.4l-.2,.3l-.4,.2v.4l-.4,.3v1.5h-1.4v-1.8l.3,-.6l.4,-.3v-.8l.4,-.3l.7,-.4l.4,-.4l.2,-.3l.3,-.4l.8,-.4h.7l.4,-.2h1.4Z"
     class="g0_1"
     id="path458" />
  <path
     d="M681.1,663.1h-1.7v-1.5l-.3,-.3v-.4l-.4,-.2l-.4,-.3V660l-.3,-.4l-.4,-.3h-.4l-.3,-.4h-.6l-.3,-.4h-1.1v-1.3h1.4l.6,.2h.3l.8,.4l.3,.4l.4,.3l.7,.4l.4,.4l.4,.3v.8l.2,.3l.3,.6v1.1l.4,.7Zm-6.2,5.9v-1.3H676l.3,-.4h.6l.3,-.3h.4l.4,-.4l.3,-.4v-.3l.4,-.4l.4,-.4v-.3l.3,-.4v-1.3h1.7l-.4,.7v1l-.3,.7l-.2,.4v.7l-.4,.4l-.4,.3l-.7,.4l-.4,.2l-.3,.3l-.8,.4h-.3l-.6,.4h-1.4ZM669,663.1h1.6v1.3l.4,.4v.3l.4,.4l.3,.4v.3l.4,.4l.4,.4h.2l.3,.3h.8l.3,.4h.8V669h-1.1l-.8,-.4h-.3l-.6,-.4l-.4,-.3l-.3,-.2l-.8,-.4l-.3,-.3l-.4,-.4v-.7l-.4,-.4l-.3,-.7v-1l-.2,-.7Zm5.9,-5.9v1.3h-.8l-.3,.4H673l-.3,.4h-.2l-.4,.3l-.4,.4v.4l-.3,.3l-.4,.2v.4l-.4,.3v1.5H669l.2,-.7v-1.1l.3,-.6l.4,-.3v-.8l.4,-.3l.3,-.4l.8,-.4l.3,-.3l.4,-.4l.6,-.4h.3l.8,-.2h1.1Z"
     class="g0_1"
     id="path460" />
  <path
     d="M669,693.4h1.3v-31H669v31Z"
     class="g0_1"
     id="path462" />
  <path
     d="M658.4,693.4h1.4v-31h-1.4v31Z"
     class="g0_1"
     id="path464" />
  <path
     d="M674.9,704.5l-.8,.8H652.9v-1.5h21.2l.8,.7Zm0,0v.8h-.8l.8,-.8Zm-.8,-12.2l.8,.7v11.5h-1.5V693l.7,-.7Zm0,0h.8v.7l-.8,-.7Zm-22,.7l.8,-.7h21.2v1.4H652.9l-.8,-.7Zm0,0v-.7h.8l-.8,.7Zm.8,12.3l-.8,-.8V693h1.5v11.5l-.7,.8Zm0,0h-.8v-.8l.8,.8Z"
     class="g0_1"
     id="path466" />
  <path
     d="M674.5,658.5h35.2v-1.3H674.5v1.3Z"
     class="g0_1"
     id="path468" />
  <path
     d="M713,654.3h-1.5v-.4l-.3,-.1v-.4l-.4,-.4v-.3h-.4l-.3,-.4l-.4,-.4h-.9v-1.4h1.3l.3,.3h.4l.4,.4h.3v.4l.4,.3l.4,.4v.4l.3,.3v.4l.4,.4v.5Zm-4.2,4.2v-1.3h.9l.4,-.3l.3,-.4h.4v-.4l.4,-.3v-.4l.3,-.4v-.7H713v1.1l-.4,.4v.3l-.3,.4v.4l-.4,.3l-.4,.2v.4h-.3l-.4,.4h-.4l-.3,.3h-1.3Zm-4.2,-4.2h1.6v1.5l.4,.3l.3,.4l.4,.4h.4v.3h1.1v1.3h-1.1l-.4,-.3h-.4l-.3,-.4h-.4l-.4,-.4l-.1,-.2l-.4,-.3v-.4l-.4,-.4v-.7l-.3,-.4v-.7Zm4.2,-3.8v1.4h-1.1v.4h-.4l-.4,.4l-.3,.3l-.4,.4v.9h-1.6v-.4l.3,-.1V653l.4,-.3v-.4l.4,-.4l.1,-.3l.4,-.4h.4l.3,-.4h.4l.4,-.3h1.1Z"
     class="g0_1"
     id="path470" />
  <path
     d="M621.3,658.5h32.3v-1.3H621.3v1.3Z"
     class="g0_1"
     id="path472" />
  <path
     d="M625.5,654.3h-1.2v-.5h-.4V653h-.4v-.3h-.3v-.4h-.4l-.4,-.4h-1.1v-1.4h1.5l.4,.3h.3l.4,.4h.4l.3,.4v.3l.2,.4l.4,.4v.3l.3,.4v.9Zm-4.2,4.2v-1.3h1.1l.4,-.3h.4v-.4h.3v-.4h.4v-.7h.4v-1.1h1.2v1.5l-.3,.3v.4l-.4,.4l-.2,.3v.2l-.3,.4h-.4l-.4,.4h-.3l-.4,.3h-1.5Zm-3.8,-4.2h1.4v1.1l.4,.4v.3h.4v.4h.3v.4h.4v.3h.9v1.3h-.9l-.4,-.3h-.3l-.4,-.4h-.4l-.3,-.4l-.4,-.2v-.3l-.4,-.4v-.4l-.3,-.3v-1.5Zm3.8,-3.8v1.4h-.9v.4H620v.4h-.3v.3h-.4v.4l-.4,.4v.5h-1.4v-.9l.3,-.4v-.3l.4,-.4v-.4l.4,-.3l.3,-.4h.4l.4,-.4h.3l.4,-.3h.9Z"
     class="g0_1"
     id="path474" />
  <path
     d="M621.1,651.6h89v-1.3h-89v1.3Z"
     class="g0_1"
     id="path476" />
  <path
     d="M689.5,675.9l-15,-12.1l.7,-1.1l15.4,12.1l-1.1,1.1Z"
     class="g0_1"
     id="path478" />
  <path
     d="M689.9,675.9h50.6v-1.6H689.9v1.6Z"
     class="g0_1"
     id="path480" />
  <path
     d="M688.8,699.6h1.5V674.8h-1.5v24.8Z"
     class="g0_1"
     id="path482" />
  <path
     d="M641.3,675.2l12.3,-12.5l.9,1.1l-12.1,12.5l-1.1,-1.1Z"
     class="g0_1"
     id="path484" />
  <path
     d="M641.3,697.9h1.5V675.6h-1.5v22.3Z"
     class="g0_1"
     id="path486" />
  <path
     d="M595.3,675.6h46.4v-1.3H595.3v1.3Z"
     class="g0_1"
     id="path488" />
  <path
     d="M611.6,674.8l-.7,.8H598.8v-1.7h12.1l.7,.9Zm0,0v.8h-.7l.7,-.8ZM610.9,645l.7,.7v29.1h-1.5V645.7l.8,-.7Zm0,0h.7v.7l-.7,-.7Zm-12.9,.7l.8,-.7h12.1v1.4H598.8l-.8,-.7Zm0,0V645h.8l-.8,.7Zm.8,29.9l-.8,-.8V645.7h1.3v29.1l-.5,.8Zm0,0H598v-.8l.8,.8Z"
     class="g0_1"
     id="path490" />
  <path
     d="M610.9,655.4h10.4v-1.5H610.9v1.5Z"
     class="g0_1"
     id="path492" />
  <path
     d="M733.2,673.9l-.8,.8H720.3v-1.5h12.1l.8,.7Zm0,0v.8h-.8l.8,-.8Zm-.8,-30l.8,1.1v28.9h-1.5V645l.7,-1.1Zm0,0h.8V645l-.8,-1.1ZM719.6,645l.7,-1.1h12.1v1.8H720.3l-.7,-.7Zm0,0v-1.1h.7l-.7,1.1Zm.7,29.7l-.7,-.8V645h1.3v28.9l-.6,.8Zm0,0h-.7v-.8l.7,.8Z"
     class="g0_1"
     id="path494" />
  <path
     d="M709.1,655.4H720v-1.6H709.1v1.6Z"
     class="g0_1"
     id="path496" />
</svg>
